# xmcd CD database file
#
# Track frame offsets:
#	150
#	24211
#	47231
#	79812
#	111366
#	134070
#	158237
#	180652
#	207063
#
# Disc length: 3127 seconds
#
# Revision: 0
# Processed by: cddbd v1.5.2PL0 Copyright (c) Steve Scherf et al.
# Submitted via: CDex 1.81
#
DISCID=760c3509
DTITLE=Pedro Guzman - Latin Jazz Vol 1
DYEAR=2000
DGENRE=Jazz
TTITLE0=Feels so good
TTITLE1=Iluvia
TTITLE2=Affirmation
TTITLE3=Blues PG
TTITLE4=Seis Comerio
TTITLE5=Que Aguien Me Diga
TTITLE6=Your are my everything
TTITLE7=Nido de amor
TTITLE8=El Nazareno
EXTD=YEAR: 2000
EXTT0=
EXTT1=
EXTT2=
EXTT3=
EXTT4=
EXTT5=
EXTT6=
EXTT7=
EXTT8=
PLAYORDER=
